<svg width="716" height="105" viewBox="0 0 716 105" fill="none" xmlns="http://www.w3.org/2000/svg">
<path d="M1.04308e-07 2.86H18.06V80.28C18.06 85.5067 19.2733 89.8 21.7 93.16C24.22 96.52 27.58 99.1333 31.78 101H26.46C22.82 101 19.3667 100.3 16.1 98.9C12.9267 97.5 10.1267 95.6333 7.7 93.3C5.36667 90.8733 3.5 88.0733 2.1 84.9C0.7 81.6333 1.04308e-07 78.18 1.04308e-07 74.54V2.86ZM20.72 82.1C21.4667 83.1267 22.3067 83.9667 23.24 84.62C24.2667 85.18 25.34 85.46 26.46 85.46H62.44V101H45.78C42.7 101 39.6667 100.673 36.68 100.02C33.7867 99.2733 31.1733 98.1533 28.84 96.66C26.6 95.0733 24.7333 93.1133 23.24 90.78C21.7467 88.3533 20.9067 85.46 20.72 82.1ZM145.418 32.96C142.432 28.48 138.512 24.9333 133.658 22.32C128.805 19.6133 123.438 18.26 117.558 18.26C113.545 18.26 109.718 18.9133 106.078 20.22C102.532 21.5267 99.3118 23.3467 96.4184 25.68C93.6184 28.0133 91.1918 30.7667 89.1384 33.94C87.0851 37.02 85.6384 40.4267 84.7984 44.16H133.938V59.7H84.5184C85.2651 64.6467 86.7118 69.4533 88.8584 74.12C91.0051 78.7867 93.6651 83.08 96.8384 87C100.105 90.92 103.792 94.3267 107.898 97.22C112.098 100.113 116.672 102.167 121.618 103.38C114.058 103.94 106.918 103.007 100.198 100.58C93.4784 98.1533 87.5518 94.6067 82.4184 89.94C77.3784 85.18 73.3651 79.5333 70.3784 73C67.3918 66.4667 65.8984 59.42 65.8984 51.86C65.8984 43.74 67.5784 36.2267 70.9384 29.32C74.3918 22.4133 79.0584 16.58 84.9384 11.82C88.1118 10.42 91.1918 9.39333 94.1784 8.73999C97.1651 8.08666 100.058 7.76 102.858 7.76C106.872 7.76 110.792 8.36666 114.618 9.57999C118.445 10.7 122.085 12.24 125.538 14.2C128.992 16.16 132.165 18.4 135.058 20.92C137.952 23.44 140.472 26.0533 142.618 28.76C144.298 30.9067 145.232 32.3067 145.418 32.96ZM91.2384 72.86C94.7851 77.34 98.9851 80.6533 103.838 82.8C108.785 84.8533 113.778 85.7867 118.818 85.6C123.952 85.32 128.852 83.9667 133.518 81.54C138.278 79.02 142.245 75.4267 145.418 70.76C147.472 68.4267 149.618 66.0467 151.858 63.62C154.098 61.1 156.665 58.6733 159.558 56.34C162.545 53.9133 165.905 51.72 169.638 49.76C173.465 47.7067 177.945 45.98 183.078 44.58C179.065 47.94 176.078 52.14 174.118 57.18C172.252 62.1267 171.318 67.4467 171.318 73.14C171.318 74.9133 171.598 76.5933 172.158 78.18C172.812 79.7667 173.605 81.1667 174.538 82.38C175.565 83.5 176.732 84.4333 178.038 85.18C179.345 85.8333 180.698 86.16 182.098 86.16H205.898C208.605 86.16 210.938 85.04 212.898 82.8C212.432 85.32 211.778 87.7467 210.938 90.08C210.192 92.32 209.118 94.28 207.718 95.96C206.318 97.64 204.545 98.9933 202.398 100.02C200.345 101.047 197.825 101.56 194.838 101.56H182.098C176.498 101.56 171.412 100.113 166.838 97.22C162.358 94.3267 158.952 90.5 156.618 85.74L155.778 86.72C152.418 90.4533 148.498 93.6733 144.018 96.38C139.632 98.9933 134.872 100.907 129.738 102.12C123.765 101.653 118.398 100.16 113.638 97.64C108.878 95.12 104.725 91.9467 101.178 88.12C99.0318 85.88 97.1184 83.4533 95.4384 80.84C93.8518 78.2267 92.4518 75.5667 91.2384 72.86ZM205.898 101.56C209.818 101.56 213.505 100.813 216.958 99.32C220.505 97.8267 223.538 95.82 226.058 93.3C228.672 90.6867 230.725 87.6533 232.218 84.2C233.712 80.7467 234.458 77.06 234.458 73.14V31.28C234.458 27.7333 233.852 24.3733 232.638 21.2C231.425 18.0267 229.698 15.18 227.458 12.66C225.312 10.14 222.745 8.08666 219.758 6.5C216.865 4.82 213.738 3.7 210.378 3.13999C212.432 4.16666 214.298 5.47333 215.978 7.06C217.658 8.64666 219.012 10.42 220.038 12.38C221.065 14.2467 221.718 16.3 221.998 18.54C222.278 20.6867 221.998 22.88 221.158 25.12C220.225 27.64 218.685 29.8333 216.538 31.7C214.392 33.4733 211.965 35.06 209.258 36.46C206.645 37.7667 203.892 38.8867 200.998 39.82C198.198 40.66 195.632 41.36 193.298 41.92C187.418 43.7867 182.798 47.3333 179.438 52.56C177.012 56.2933 175.378 60.6333 174.538 65.58C176.032 64.3667 178.225 63.1533 181.118 61.94C184.105 60.7267 188.212 59.3733 193.438 57.88C196.238 57.1333 199.692 56.2 203.798 55.08C207.998 53.8667 212.198 52.3267 216.398 50.46V63.76C216.398 66.84 216.352 70.2467 216.258 73.98C216.258 77.62 215.885 81.2133 215.138 84.76C214.485 88.3067 213.412 91.5733 211.918 94.56C210.425 97.5467 208.232 99.88 205.338 101.56H205.898ZM197.918 2.86H162.778V18.26H205.898C208.418 18.26 210.612 19.24 212.478 21.2C214.345 23.0667 215.558 25.4933 216.118 28.48C218.452 25.8667 219.525 23.0667 219.338 20.08C219.245 17 218.265 14.2 216.398 11.68C214.625 9.16 212.105 7.06 208.838 5.38C205.572 3.7 201.932 2.86 197.918 2.86ZM117.558 0.199996C125.118 0.199996 132.165 1.74 138.698 4.81999C145.325 7.80666 151.018 11.9133 155.778 17.14L147.098 30.58C146.258 29.18 145.185 27.7333 143.878 26.24C142.665 24.6533 141.265 23.1133 139.678 21.62C138.092 20.0333 136.365 18.54 134.498 17.14C132.725 15.6467 130.905 14.34 129.038 13.22C123.812 9.95333 118.165 7.61999 112.098 6.21999C106.125 4.72666 99.8718 4.72666 93.3384 6.21999C96.9784 4.35333 100.805 2.90666 104.818 1.88C108.925 0.759997 113.172 0.199996 117.558 0.199996ZM264.427 18.26V101H246.367V2.72H298.867C303.627 2.72 308.061 3.7 312.167 5.65999C316.274 7.52666 319.774 10.0933 322.667 13.36C325.654 16.5333 327.894 20.2667 329.387 24.56C330.974 28.76 331.581 33.24 331.207 38C330.274 36.04 329.154 34.1267 327.847 32.26C326.541 30.3933 325.001 28.6667 323.227 27.08C319.494 23.8133 315.667 21.62 311.747 20.5C307.921 19.38 303.627 18.6333 298.867 18.26H264.427ZM308.667 22.18C313.614 23.4867 317.861 25.7733 321.407 29.04C323.741 31.0933 325.607 33.38 327.007 35.9C328.501 38.3267 329.621 40.7533 330.367 43.18C329.061 48.6867 326.401 53.68 322.387 58.16C318.467 62.5467 313.847 65.6733 308.527 67.54L308.807 67.68C310.301 69.92 311.934 72.44 313.707 75.24C315.574 77.9467 317.487 80.7933 319.447 83.78C321.501 86.6733 323.507 89.6133 325.467 92.6C327.427 95.4933 329.294 98.2467 331.067 100.86H309.507L286.127 66.28C285.101 64.7867 284.587 63.2467 284.587 61.66C284.587 59.98 284.961 58.44 285.707 57.04C286.547 55.64 287.621 54.52 288.927 53.68C290.327 52.7467 291.961 52.28 293.827 52.28H299.987C303.721 52 306.614 50.6467 308.667 48.22C310.814 45.7933 312.214 42.9933 312.867 39.82C313.521 36.6467 313.474 33.4267 312.727 30.16C311.981 26.8933 310.627 24.2333 308.667 22.18ZM343.301 11.68C343.301 9.62666 343.861 7.9 344.981 6.5C346.101 5.00666 347.454 3.97999 349.041 3.42C350.627 2.76666 352.354 2.62666 354.221 2.99999C356.087 3.28 357.721 4.21333 359.121 5.8L417.781 68.94C420.207 71.46 422.914 73.7933 425.901 75.94C428.887 77.9933 432.201 79.02 435.841 79.02V91.9C435.841 93.9533 435.281 95.7267 434.161 97.22C433.041 98.62 431.687 99.6467 430.101 100.3C428.514 100.953 426.787 101.14 424.921 100.86C423.054 100.487 421.421 99.5067 420.021 97.92L361.361 34.64C358.281 31.3733 355.154 29.04 351.981 27.64C348.901 26.1467 346.007 25.4933 343.301 25.68V11.68ZM417.781 65.16V2.72H435.841V76.36C433.881 76.36 432.061 76.0333 430.381 75.38C428.794 74.6333 427.254 73.7467 425.761 72.72C424.267 71.6 422.867 70.3867 421.561 69.08C420.254 67.7733 418.994 66.4667 417.781 65.16ZM361.361 38.56V101H343.301V28.34C345.167 28.2467 346.941 28.48 348.621 29.04C350.301 29.6 351.887 30.3933 353.381 31.42C354.874 32.3533 356.274 33.4733 357.581 34.78C358.887 35.9933 360.147 37.2533 361.361 38.56ZM499.414 101.7C502.307 100.02 504.501 97.6867 505.994 94.7C507.487 91.62 508.561 88.3533 509.214 84.9C509.961 81.3533 510.334 77.76 510.334 74.12C510.427 70.3867 510.474 66.98 510.474 63.9V50.6C506.274 52.4667 502.074 54.0067 497.874 55.22C493.767 56.34 490.314 57.2733 487.514 58.02C482.287 59.42 478.181 60.7267 475.194 61.94C472.301 63.1533 470.107 64.4133 468.614 65.72C469.454 60.7733 471.087 56.4333 473.514 52.7C476.874 47.4733 481.541 43.88 487.514 41.92C489.847 41.36 492.414 40.66 495.214 39.82C498.014 38.8867 500.721 37.7667 503.334 36.46C506.041 35.1533 508.467 33.6133 510.614 31.84C512.761 29.9733 514.301 27.78 515.234 25.26C516.074 23.02 516.354 20.8267 516.074 18.68C515.794 16.44 515.141 14.3867 514.114 12.52C513.087 10.56 511.734 8.78666 510.054 7.2C508.374 5.61333 506.507 4.30666 504.454 3.28C507.814 3.84 510.941 4.96 513.834 6.64C516.821 8.22667 519.387 10.28 521.534 12.8C523.774 15.2267 525.501 18.0267 526.714 21.2C527.927 24.3733 528.534 27.7333 528.534 31.28V73.28C528.534 77.2 527.787 80.8867 526.294 84.34C524.801 87.7933 522.747 90.8267 520.134 93.44C517.614 95.96 514.627 97.9667 511.174 99.46C507.721 100.953 504.034 101.7 500.114 101.7H499.414ZM506.974 82.94C506.507 85.46 505.854 87.8867 505.014 90.22C504.267 92.46 503.194 94.42 501.794 96.1C500.394 97.78 498.621 99.1333 496.474 100.16C494.421 101.187 491.901 101.7 488.914 101.7H476.174C472.254 101.7 468.567 100.953 465.114 99.46C461.661 97.9667 458.627 95.96 456.014 93.44C453.494 90.8267 451.487 87.7933 449.994 84.34C448.501 80.8867 447.754 77.2 447.754 73.28C447.754 66.4667 450.181 60.7733 455.034 56.2C459.887 51.6267 467.261 47.8 477.154 44.72C473.141 48.08 470.154 52.28 468.194 57.32C466.327 62.2667 465.394 67.5867 465.394 73.28C465.394 75.0533 465.674 76.7333 466.234 78.32C466.887 79.9067 467.681 81.3067 468.614 82.52C469.641 83.64 470.807 84.5267 472.114 85.18C473.421 85.8333 474.774 86.16 476.174 86.16H500.114C502.727 86.16 505.014 85.0867 506.974 82.94ZM491.994 2.86C496.007 2.86 499.647 3.7 502.914 5.38C506.181 7.06 508.747 9.20666 510.614 11.82C512.481 14.34 513.461 17.0933 513.554 20.08C513.647 23.0667 512.527 25.8667 510.194 28.48C509.727 25.5867 508.514 23.2067 506.554 21.34C504.687 19.38 502.541 18.4 500.114 18.4H456.854V2.86H491.994ZM558.509 18.26V101H540.449V2.72H592.949C597.709 2.72 602.143 3.7 606.249 5.65999C610.356 7.52666 613.856 10.0933 616.749 13.36C619.736 16.5333 621.976 20.2667 623.469 24.56C625.056 28.76 625.663 33.24 625.289 38C624.356 36.04 623.236 34.1267 621.929 32.26C620.623 30.3933 619.083 28.6667 617.309 27.08C613.576 23.8133 609.749 21.62 605.829 20.5C602.003 19.38 597.709 18.6333 592.949 18.26H558.509ZM602.749 22.18C607.696 23.4867 611.943 25.7733 615.489 29.04C617.823 31.0933 619.689 33.38 621.089 35.9C622.583 38.3267 623.703 40.7533 624.449 43.18C623.143 48.6867 620.483 53.68 616.469 58.16C612.549 62.5467 607.929 65.6733 602.609 67.54L602.889 67.68C604.383 69.92 606.016 72.44 607.789 75.24C609.656 77.9467 611.569 80.7933 613.529 83.78C615.583 86.6733 617.589 89.6133 619.549 92.6C621.509 95.4933 623.376 98.2467 625.149 100.86H603.589L580.209 66.28C579.183 64.7867 578.669 63.2467 578.669 61.66C578.669 59.98 579.043 58.44 579.789 57.04C580.629 55.64 581.703 54.52 583.009 53.68C584.409 52.7467 586.043 52.28 587.909 52.28H594.069C597.803 52 600.696 50.6467 602.749 48.22C604.896 45.7933 606.296 42.9933 606.949 39.82C607.603 36.6467 607.556 33.4267 606.809 30.16C606.063 26.8933 604.709 24.2333 602.749 22.18ZM659.874 77.9C659.874 73.7933 660.014 70.2 660.294 67.12C660.574 63.9467 661.087 60.96 661.834 58.16C662.674 55.36 663.747 52.56 665.054 49.76C666.454 46.96 668.274 43.8333 670.514 40.38L694.454 2.86H715.874L677.934 62.36V101H659.874V77.9ZM667.294 40.66C664.96 44.3933 663.094 47.8467 661.694 51.02C660.387 54.1 659.36 57.2733 658.614 60.54L621.934 2.86H643.214L667.294 40.66Z" fill="url(#paint0_linear_6_3)"/>
<defs>
<linearGradient id="paint0_linear_6_3" x1="-7" y1="66" x2="723" y2="66" gradientUnits="userSpaceOnUse">
<stop stop-color="#6A2304"/>
<stop offset="1" stop-color="#C25E32"/>
</linearGradient>
</defs>
</svg>
