<svg width="328" height="49" viewBox="0 0 328 49" fill="none" xmlns="http://www.w3.org/2000/svg">
<path d="M0.2 2.136H8.456V37.528C8.456 39.9173 9.01067 41.88 10.12 43.416C11.272 44.952 12.808 46.1467 14.728 47H12.296C10.632 47 9.05333 46.68 7.56 46.04C6.10933 45.4 4.82933 44.5467 3.72 43.48C2.65333 42.3707 1.8 41.0907 1.16 39.64C0.52 38.1467 0.2 36.568 0.2 34.904V2.136ZM9.672 38.36C10.0133 38.8293 10.3973 39.2133 10.824 39.512C11.2933 39.768 11.784 39.896 12.296 39.896H28.744V47H21.128C19.72 47 18.3333 46.8507 16.968 46.552C15.6453 46.2107 14.4507 45.6987 13.384 45.016C12.36 44.2907 11.5067 43.3947 10.824 42.328C10.1413 41.2187 9.75733 39.896 9.672 38.36ZM66.677 15.896C65.3117 13.848 63.5197 12.2267 61.301 11.032C59.0823 9.79467 56.629 9.176 53.941 9.176C52.1063 9.176 50.357 9.47467 48.693 10.072C47.0717 10.6693 45.5997 11.5013 44.277 12.568C42.997 13.6347 41.8877 14.8933 40.949 16.344C40.0103 17.752 39.349 19.3093 38.965 21.016H61.429V28.12H38.837C39.1783 30.3813 39.8397 32.5787 40.821 34.712C41.8023 36.8453 43.0183 38.808 44.469 40.6C45.9623 42.392 47.6477 43.9493 49.525 45.272C51.445 46.5947 53.5357 47.5333 55.797 48.088C52.341 48.344 49.077 47.9173 46.005 46.808C42.933 45.6987 40.2237 44.0773 37.877 41.944C35.573 39.768 33.7383 37.1867 32.373 34.2C31.0077 31.2133 30.325 27.992 30.325 24.536C30.325 20.824 31.093 17.3893 32.629 14.232C34.2077 11.0747 36.341 8.408 39.029 6.232C40.4797 5.592 41.8877 5.12267 43.253 4.824C44.6183 4.52533 45.941 4.376 47.221 4.376C49.0557 4.376 50.8477 4.65333 52.597 5.208C54.3463 5.72 56.0103 6.424 57.589 7.32C59.1677 8.216 60.6183 9.24 61.941 10.392C63.2637 11.544 64.4157 12.7387 65.397 13.976C66.165 14.9573 66.5917 15.5973 66.677 15.896ZM41.909 34.136C43.5303 36.184 45.4503 37.6987 47.669 38.68C49.9303 39.6187 52.213 40.0453 54.517 39.96C56.8637 39.832 59.1037 39.2133 61.237 38.104C63.413 36.952 65.2263 35.3093 66.677 33.176C67.6157 32.1093 68.597 31.0213 69.621 29.912C70.645 28.76 71.8183 27.6507 73.141 26.584C74.5063 25.4747 76.0423 24.472 77.749 23.576C79.4983 22.6373 81.5463 21.848 83.893 21.208C82.0583 22.744 80.693 24.664 79.797 26.968C78.9437 29.2293 78.517 31.6613 78.517 34.264C78.517 35.0747 78.645 35.8427 78.901 36.568C79.1997 37.2933 79.5623 37.9333 79.989 38.488C80.4583 39 80.9917 39.4267 81.589 39.768C82.1863 40.0667 82.805 40.216 83.445 40.216H94.325C95.5623 40.216 96.629 39.704 97.525 38.68C97.3117 39.832 97.013 40.9413 96.629 42.008C96.2877 43.032 95.797 43.928 95.157 44.696C94.517 45.464 93.7063 46.0827 92.725 46.552C91.7863 47.0213 90.6343 47.256 89.269 47.256H83.445C80.885 47.256 78.5597 46.5947 76.469 45.272C74.421 43.9493 72.8637 42.2 71.797 40.024L71.413 40.472C69.877 42.1787 68.085 43.6507 66.037 44.888C64.0317 46.0827 61.8557 46.9573 59.509 47.512C56.7783 47.2987 54.325 46.616 52.149 45.464C49.973 44.312 48.0743 42.8613 46.453 41.112C45.4717 40.088 44.597 38.9787 43.829 37.784C43.1037 36.5893 42.4637 35.3733 41.909 34.136ZM94.325 47.256C96.117 47.256 97.8023 46.9147 99.381 46.232C101.002 45.5493 102.389 44.632 103.541 43.48C104.736 42.2853 105.674 40.8987 106.357 39.32C107.04 37.7413 107.381 36.056 107.381 34.264V15.128C107.381 13.5067 107.104 11.9707 106.549 10.52C105.994 9.06933 105.205 7.768 104.181 6.616C103.2 5.464 102.026 4.52533 100.661 3.8C99.3383 3.032 97.909 2.52 96.373 2.264C97.3117 2.73333 98.165 3.33067 98.933 4.056C99.701 4.78133 100.32 5.592 100.789 6.488C101.258 7.34133 101.557 8.28 101.685 9.304C101.813 10.2853 101.685 11.288 101.301 12.312C100.874 13.464 100.17 14.4667 99.189 15.32C98.2077 16.1307 97.0983 16.856 95.861 17.496C94.6663 18.0933 93.4077 18.6053 92.085 19.032C90.805 19.416 89.6317 19.736 88.565 19.992C85.877 20.8453 83.765 22.4667 82.229 24.856C81.1197 26.5627 80.373 28.5467 79.989 30.808C80.6717 30.2533 81.6743 29.6987 82.997 29.144C84.3623 28.5893 86.2397 27.9707 88.629 27.288C89.909 26.9467 91.4877 26.52 93.365 26.008C95.285 25.4533 97.205 24.7493 99.125 23.896V29.976C99.125 31.384 99.1037 32.9413 99.061 34.648C99.061 36.312 98.8903 37.9547 98.549 39.576C98.2503 41.1973 97.7597 42.6907 97.077 44.056C96.3943 45.4213 95.3917 46.488 94.069 47.256H94.325ZM90.677 2.136H74.613V9.176H94.325C95.477 9.176 96.4797 9.624 97.333 10.52C98.1863 11.3733 98.741 12.4827 98.997 13.848C100.064 12.6533 100.554 11.3733 100.469 10.008C100.426 8.6 99.9783 7.32 99.125 6.168C98.3143 5.016 97.1623 4.056 95.669 3.288C94.1757 2.52 92.5117 2.136 90.677 2.136ZM53.941 0.919998C57.397 0.919998 60.6183 1.624 63.605 3.032C66.6343 4.39733 69.237 6.27466 71.413 8.664L67.445 14.808C67.061 14.168 66.5703 13.5067 65.973 12.824C65.4183 12.0987 64.7783 11.3947 64.053 10.712C63.3277 9.98666 62.5383 9.304 61.685 8.664C60.8743 7.98133 60.0423 7.384 59.189 6.872C56.7997 5.37866 54.2183 4.312 51.445 3.672C48.7143 2.98933 45.8557 2.98933 42.869 3.672C44.533 2.81866 46.2823 2.15733 48.117 1.688C49.9943 1.176 51.9357 0.919998 53.941 0.919998ZM121.081 9.176V47H112.825V2.072H136.825C139.001 2.072 141.028 2.52 142.905 3.416C144.782 4.26933 146.382 5.44267 147.705 6.936C149.07 8.38667 150.094 10.0933 150.777 12.056C151.502 13.976 151.78 16.024 151.609 18.2C151.182 17.304 150.67 16.4293 150.073 15.576C149.476 14.7227 148.772 13.9333 147.961 13.208C146.254 11.7147 144.505 10.712 142.713 10.2C140.964 9.688 139.001 9.34667 136.825 9.176H121.081ZM141.305 10.968C143.566 11.5653 145.508 12.6107 147.129 14.104C148.196 15.0427 149.049 16.088 149.689 17.24C150.372 18.3493 150.884 19.4587 151.225 20.568C150.628 23.0853 149.412 25.368 147.577 27.416C145.785 29.4213 143.673 30.8507 141.241 31.704L141.369 31.768C142.052 32.792 142.798 33.944 143.609 35.224C144.462 36.4613 145.337 37.7627 146.233 39.128C147.172 40.4507 148.089 41.7947 148.985 43.16C149.881 44.4827 150.734 45.7413 151.545 46.936H141.689L131.001 31.128C130.532 30.4453 130.297 29.7413 130.297 29.016C130.297 28.248 130.468 27.544 130.809 26.904C131.193 26.264 131.684 25.752 132.281 25.368C132.921 24.9413 133.668 24.728 134.521 24.728H137.337C139.044 24.6 140.366 23.9813 141.305 22.872C142.286 21.7627 142.926 20.4827 143.225 19.032C143.524 17.5813 143.502 16.1093 143.161 14.616C142.82 13.1227 142.201 11.9067 141.305 10.968ZM157.138 6.168C157.138 5.22933 157.394 4.44 157.906 3.8C158.418 3.11733 159.036 2.648 159.762 2.392C160.487 2.09333 161.276 2.02933 162.13 2.2C162.983 2.328 163.73 2.75467 164.37 3.48L191.186 32.344C192.295 33.496 193.532 34.5627 194.898 35.544C196.263 36.4827 197.778 36.952 199.442 36.952V42.84C199.442 43.7787 199.186 44.5893 198.674 45.272C198.162 45.912 197.543 46.3813 196.818 46.68C196.092 46.9787 195.303 47.064 194.45 46.936C193.596 46.7653 192.85 46.3173 192.21 45.592L165.394 16.664C163.986 15.1707 162.556 14.104 161.106 13.464C159.698 12.7813 158.375 12.4827 157.138 12.568V6.168ZM191.186 30.616V2.072H199.442V35.736C198.546 35.736 197.714 35.5867 196.946 35.288C196.22 34.9467 195.516 34.5413 194.834 34.072C194.151 33.56 193.511 33.0053 192.914 32.408C192.316 31.8107 191.74 31.2133 191.186 30.616ZM165.394 18.456V47H157.138V13.784C157.991 13.7413 158.802 13.848 159.57 14.104C160.338 14.36 161.063 14.7227 161.746 15.192C162.428 15.6187 163.068 16.1307 163.666 16.728C164.263 17.2827 164.839 17.8587 165.394 18.456ZM228.504 47.32C229.826 46.552 230.829 45.4853 231.512 44.12C232.194 42.712 232.685 41.2187 232.984 39.64C233.325 38.0187 233.496 36.376 233.496 34.712C233.538 33.0053 233.56 31.448 233.56 30.04V23.96C231.64 24.8133 229.72 25.5173 227.8 26.072C225.922 26.584 224.344 27.0107 223.064 27.352C220.674 27.992 218.797 28.5893 217.432 29.144C216.109 29.6987 215.106 30.2747 214.424 30.872C214.808 28.6107 215.554 26.6267 216.664 24.92C218.2 22.5307 220.333 20.888 223.064 19.992C224.13 19.736 225.304 19.416 226.584 19.032C227.864 18.6053 229.101 18.0933 230.296 17.496C231.533 16.8987 232.642 16.1947 233.624 15.384C234.605 14.5307 235.309 13.528 235.736 12.376C236.12 11.352 236.248 10.3493 236.12 9.368C235.992 8.344 235.693 7.40533 235.224 6.552C234.754 5.656 234.136 4.84533 233.368 4.12C232.6 3.39466 231.746 2.79733 230.808 2.328C232.344 2.584 233.773 3.096 235.096 3.864C236.461 4.58933 237.634 5.528 238.616 6.68C239.64 7.78933 240.429 9.06933 240.984 10.52C241.538 11.9707 241.816 13.5067 241.816 15.128V34.328C241.816 36.12 241.474 37.8053 240.792 39.384C240.109 40.9627 239.17 42.3493 237.976 43.544C236.824 44.696 235.458 45.6133 233.88 46.296C232.301 46.9787 230.616 47.32 228.824 47.32H228.504ZM231.96 38.744C231.746 39.896 231.448 41.0053 231.064 42.072C230.722 43.096 230.232 43.992 229.592 44.76C228.952 45.528 228.141 46.1467 227.16 46.616C226.221 47.0853 225.069 47.32 223.704 47.32H217.88C216.088 47.32 214.402 46.9787 212.824 46.296C211.245 45.6133 209.858 44.696 208.664 43.544C207.512 42.3493 206.594 40.9627 205.911 39.384C205.229 37.8053 204.888 36.12 204.888 34.328C204.888 31.2133 205.997 28.6107 208.216 26.52C210.434 24.4293 213.805 22.68 218.328 21.272C216.493 22.808 215.128 24.728 214.232 27.032C213.378 29.2933 212.952 31.7253 212.952 34.328C212.952 35.1387 213.08 35.9067 213.336 36.632C213.634 37.3573 213.997 37.9973 214.424 38.552C214.893 39.064 215.426 39.4693 216.024 39.768C216.621 40.0667 217.24 40.216 217.88 40.216H228.824C230.018 40.216 231.064 39.7253 231.96 38.744ZM225.112 2.136C226.946 2.136 228.61 2.52 230.104 3.288C231.597 4.056 232.77 5.03733 233.624 6.232C234.477 7.384 234.925 8.64267 234.968 10.008C235.01 11.3733 234.498 12.6533 233.432 13.848C233.218 12.5253 232.664 11.4373 231.768 10.584C230.914 9.688 229.933 9.24 228.824 9.24H209.048V2.136H225.112ZM255.519 9.176V47H247.263V2.072H271.263C273.439 2.072 275.465 2.52 277.343 3.416C279.22 4.26933 280.82 5.44267 282.143 6.936C283.508 8.38667 284.532 10.0933 285.215 12.056C285.94 13.976 286.217 16.024 286.047 18.2C285.62 17.304 285.108 16.4293 284.511 15.576C283.913 14.7227 283.209 13.9333 282.399 13.208C280.692 11.7147 278.943 10.712 277.151 10.2C275.401 9.688 273.439 9.34667 271.263 9.176H255.519ZM275.743 10.968C278.004 11.5653 279.945 12.6107 281.567 14.104C282.633 15.0427 283.487 16.088 284.127 17.24C284.809 18.3493 285.321 19.4587 285.663 20.568C285.065 23.0853 283.849 25.368 282.015 27.416C280.223 29.4213 278.111 30.8507 275.679 31.704L275.807 31.768C276.489 32.792 277.236 33.944 278.047 35.224C278.9 36.4613 279.775 37.7627 280.671 39.128C281.609 40.4507 282.527 41.7947 283.423 43.16C284.319 44.4827 285.172 45.7413 285.983 46.936H276.127L265.439 31.128C264.969 30.4453 264.735 29.7413 264.735 29.016C264.735 28.248 264.905 27.544 265.247 26.904C265.631 26.264 266.121 25.752 266.719 25.368C267.359 24.9413 268.105 24.728 268.959 24.728H271.775C273.481 24.6 274.804 23.9813 275.743 22.872C276.724 21.7627 277.364 20.4827 277.663 19.032C277.961 17.5813 277.94 16.1093 277.599 14.616C277.257 13.1227 276.639 11.9067 275.743 10.968ZM301.857 36.44C301.857 34.5627 301.921 32.92 302.049 31.512C302.177 30.0613 302.411 28.696 302.753 27.416C303.137 26.136 303.627 24.856 304.225 23.576C304.865 22.296 305.697 20.8667 306.721 19.288L317.665 2.136H327.457L310.113 29.336V47H301.857V36.44ZM305.249 19.416C304.182 21.1227 303.329 22.7013 302.689 24.152C302.091 25.56 301.622 27.0107 301.281 28.504L284.513 2.136H294.241L305.249 19.416Z" fill="url(#paint0_linear_1_2)"/>
<defs>
<linearGradient id="paint0_linear_1_2" x1="-3" y1="31" x2="331" y2="31" gradientUnits="userSpaceOnUse">
<stop offset="0.0264248" stop-color="#C25E32"/>
<stop offset="1" stop-color="white"/>
</linearGradient>
</defs>
</svg>
